<?xml version="1.0" encoding="UTF-8"?>
<svg width="20px" height="24px" viewBox="0 0 20 24" version="1.1" xmlns="http://www.w3.org/2000/svg" xmlns:xlink="http://www.w3.org/1999/xlink">
    <!-- Generator: Sketch 42 (36781) - http://www.bohemiancoding.com/sketch -->
    <title>Group 4 Copy 6</title>
    <desc>Created with Sketch.</desc>
    <defs></defs>
    <g id="Ventas-in-situ" stroke="none" stroke-width="1" fill="none" fill-rule="evenodd">
        <g id="Artboard" transform="translate(-2452.000000, -175.000000)">
            <g id="Group-4-Copy-6" transform="translate(2452.000000, 175.000000)">
                <g id="Group-2" transform="translate(0.000000, 12.797386)">
                    <path d="M14.7277113,6.61512492 C14.6787423,6.49147443 14.5997732,6.37113786 14.5860619,6.24365566 C14.5179175,5.61214757 14.5183299,4.96883366 14.3971959,4.34882071 C14.2438969,3.56383689 14.4697732,2.86615405 14.7211134,2.15697605 C14.7805979,1.9891055 14.8922474,1.93887896 15.0594639,1.91837411 C15.8410103,1.82247767 15.844,1.8138822 15.8044124,1.07467184 C15.8044124,1.07456828 15.8043093,1.07456828 15.8043093,1.07446472 C15.1082268,1.07156505 14.4122474,1.06845825 13.7163711,1.06545502 C13.7161649,1.06555858 13.7159588,1.06566214 13.7157526,1.0657657 C13.3112165,1.58801812 12.8453402,2.06584337 12.5725567,2.68326731 C12.4854433,2.88044531 12.2955464,2.84792751 12.1342062,2.83301489 C11.5214227,2.77657476 10.9097732,2.7093644 10.2977113,2.64608932 L10.2977113,2.64608932 L10.2977113,2.64608932 C9.98059794,2.63594045 9.64461856,2.71837411 9.37884536,2.45678188 L9.37874227,2.45657476 C9.21389691,2.41970744 9.04905155,2.38273657 8.88420619,2.34566214 C8.06936082,2.19487896 7.26410309,2.01157799 6.56626804,1.53054239 C6.09348454,1.20463948 5.57606186,1.12199871 5.01162887,1.12500194 C4.40296907,1.1282123 3.78719588,1.2231767 3.18276289,1.06483366 C3.11441237,1.06680129 3.04606186,1.06876893 2.97802062,1.07073657 L2.97802062,1.07094369 C2.98987629,1.11858123 3.01843299,1.16901489 3.0111134,1.21354563 C2.88018557,2.01012816 2.98585567,2.14113139 3.7725567,2.14724142 C3.92286598,2.14838058 4.07482474,2.13574628 4.22307216,2.15397282 C4.53018557,2.19187573 4.86668041,2.0531055 5.14245361,2.28052298 C6.17070103,3.12836764 7.354,3.71027055 8.53389691,4.30107961 C8.76760825,4.41799871 9.06090722,4.48168803 9.20008247,4.71925437 C9.99626804,6.07816699 10.8788454,7.37421877 11.9021443,8.57157799 C12.8590515,7.94131262 13.8223505,7.32057476 14.7277113,6.61512492 L14.7277113,6.61512492" id="Fill-1" fill="#F2AD6E"></path>
                    <path d="M1.65581443,0.629012298 C7.21169072,0.636779288 12.767567,0.637089968 18.3234433,0.629012298 C18.6369485,0.628494498 18.7496289,0.740546278 18.7183918,1.03610615 L18.7183918,1.03610615 C18.810866,0.533737217 19.2018969,0.638539806 19.5274639,0.652934628 C19.8877732,0.668882848 19.9660206,0.402216181 19.9695258,0.166928155 C19.9733402,-0.0928 19.7098351,0.0282614887 19.5736495,0.0280543689 C13.1647835,0.0203909385 6.75581443,0.0203909385 0.346845361,0.0250511327 C0.221278351,0.0251546926 -0.0128453608,-0.0718809061 0.000556701031,0.166824595 C0.0104536082,0.343497735 0.0423092784,0.588209709 0.298082474,0.63543301 C0.411484536,0.656455663 0.535092784,0.666708091 0.646742268,0.644546278 C0.981278351,0.577853722 1.16560825,0.727911974 1.25921649,1.03310291 C1.22261856,0.73081165 1.34797938,0.628598058 1.65581443,0.629012298" id="Fill-3" fill="#B1AFB0"></path>
                    <path d="M13.4321546,8.31322718 C12.9965876,8.60785502 12.5609175,8.90237929 12.1253505,9.1968 L12.1253505,9.1968 C12.0856598,9.23428867 12.0460722,9.27188091 12.0063814,9.30936958 L15.4768969,6.92946019 C14.7953505,7.39071586 14.1138041,7.85207508 13.4321546,8.31322718" id="Fill-5" fill="#04706F"></path>
                    <path d="M17.4044536,9.20376958 C16.8532165,8.47315469 16.3025979,7.74212557 15.7501237,7.01254628 C15.6818763,6.92244919 15.6146598,6.80159482 15.4769278,6.92949126 L17.4024948,9.20894757 C17.4031134,9.2070835 17.4039381,9.20563366 17.4044536,9.20376958" id="Fill-7" fill="#04706F"></path>
                    <path d="M12.6186186,10.1465269 L12.2517835,9.86660453 C12.3601598,9.96886127 12.4848299,10.0607016 12.6186186,10.1465269" id="Fill-9" fill="#04706F"></path>
                    <path d="M6.59148454,1.06565178 C6.59158763,1.06565178 6.59179381,1.06565178 6.59189691,1.06575534 C6.59169072,1.06565178 6.59148454,1.06554822 6.59127835,1.06544466 C7.0591134,1.06440906 7.52674227,1.0632699 7.99426804,1.06202718 C8.45292784,1.08387832 8.93653608,0.894985113 9.35859794,1.22503042 C9.44581443,0.969133981 9.66395876,1.07010485 9.82663918,1.06906926 C11.1229278,1.06119871 12.4193196,1.06503042 13.7160206,1.0653411 C13.7159175,1.06554822 13.7158144,1.06565178 13.7157113,1.06575534 C13.7159175,1.06565178 13.7161237,1.06554822 13.716433,1.06544466 C14.4123093,1.06855146 15.1081856,1.07155469 15.804268,1.07445437 L15.8046804,1.07445437 C16.7760206,1.06150939 17.7471546,1.04877152 18.7183918,1.03613722 L18.7183918,1.03603366 C18.7496289,0.740577346 18.6369485,0.628525566 18.3234433,0.628939806 C12.767567,0.637121036 7.21169072,0.636810356 1.65581443,0.629043366 C1.34797938,0.628629126 1.22261856,0.730842718 1.25921649,1.03313398 C1.83210309,1.04576828 2.40509278,1.05829903 2.9776701,1.07082977 C2.9777732,1.07082977 2.97797938,1.07082977 2.97808247,1.07072621 C3.04602062,1.06875858 3.11437113,1.06679094 3.18272165,1.0648233 C4.31901031,1.06513398 5.45529897,1.0653411 6.59148454,1.06565178" id="Fill-11" fill="#8E8D8E"></path>
                    <path d="M13.4321546,8.31322718 C14.1138041,7.85207508 14.7953505,7.39071586 15.4768969,6.92946019 C15.2141134,6.85624337 15.1535979,6.29629515 14.7277216,6.61515599 C14.7277216,6.61515599 14.7277216,6.61515599 14.7276186,6.61515599 C13.8223608,7.32060583 12.8589588,7.94134369 11.9021546,8.57160906 C11.9020515,8.57160906 11.9020515,8.57171262 11.9020515,8.57171262 C11.6964845,8.88104595 12.1101959,8.96700065 12.1253505,9.1968 L12.1253505,9.1968 C12.5609175,8.90237929 12.9965876,8.60785502 13.4321546,8.31322718" id="Fill-13" fill="#069BA2"></path>
                    <path d="M17.9002268,9.7981411 L18.1737835,10.1145942 C18.1413454,9.95071931 18.0703402,9.82528242 17.9002268,9.7981411" id="Fill-15" fill="#0C7272"></path>
                    <path d="M6.59193814,1.06572427 C6.59183505,1.06572427 6.59162887,1.06562071 6.59152577,1.06562071 C5.45523711,1.06541359 4.31905155,1.06510291 3.18276289,1.06489579 C3.78719588,1.22323883 4.40296907,1.12817087 5.01162887,1.12496052 C5.57606186,1.12195728 6.09348454,1.20470162 6.56616495,1.53060453 C7.26410309,2.01164013 8.06936082,2.19483754 8.88420619,2.34572427 C8.18946392,1.7936466 7.39028866,1.4300479 6.59193814,1.06572427" id="Fill-17" fill="#DF9A5A"></path>
                    <path d="M9.35862887,1.22507184 C8.93656701,0.895026537 8.45295876,1.08381618 7.99429897,1.06206861 C8.6181134,1.36435987 9.04079381,1.86817864 9.37893814,2.45660583 L9.37873196,2.45660583 L9.37883505,2.45670939 C9.64460825,2.71840518 9.98058763,2.63597152 10.297701,2.64612039 C10.297701,2.64612039 10.297701,2.64612039 10.297701,2.64601683 C9.98471134,2.17243754 9.67172165,1.69875469 9.35862887,1.22507184" id="Fill-19" fill="#B77543"></path>
                    <path d="M7.99431959,1.0620479 C7.52669072,1.06329061 7.05906186,1.06442977 6.5913299,1.06536181 C6.59153608,1.06546537 6.59174227,1.06567249 6.59194845,1.06577605 C7.39029897,1.42999612 8.18947423,1.79359482 8.88421649,2.34567249 C9.04895876,2.38274693 9.21390722,2.4197178 9.37875258,2.45658511 C9.37885567,2.45658511 9.37885567,2.45658511 9.37895876,2.45668867 C9.04081443,1.86815793 8.61813402,1.36433916 7.99431959,1.0620479" id="Fill-21" fill="#CD864A"></path>
                    <path d="M18.6015979,10.6284531 L18.0889175,10.0214887 L17.9002577,9.79811003 L17.4025258,9.20895793 L15.4769588,6.92939806 L12.0064433,9.30930744 C12.0064433,9.30930744 11.9864433,9.65933981 12.2456186,9.86169579 L12.2518041,9.86656311 L12.5047938,10.0641553 L12.6300515,10.2252945 L12.9432474,10.6284531 L18.6015979,10.6284531 Z" id="Fill-23" fill="#0F5F60"></path>
                </g>
                <path d="M14.1847826,0.352941176 L5.81521739,0.352941176 C5.48491848,0.352941176 5.2173913,0.626718954 5.2173913,0.964052288 L5.2173913,9.51960784 C5.2173913,9.85724673 5.48491848,10.130719 5.81521739,10.130719 L14.1847826,10.130719 C14.5150815,10.130719 14.7826087,9.85724673 14.7826087,9.51960784 L14.7826087,0.964052288 C14.7826087,0.626718954 14.5150815,0.352941176 14.1847826,0.352941176" id="Fill-1" fill="#88C057" transform="translate(10.000000, 5.241830) rotate(-90.000000) translate(-10.000000, -5.241830) "></path>
                <path d="M11.4068342,4.72009395 L10.2111821,3.49787173 C10.1570788,3.44256618 10.0823505,3.40864951 9.99985054,3.40864951 C9.91735054,3.40864951 9.84262228,3.44256618 9.78851902,3.49787173 L8.59286685,4.72009395 C8.53876359,4.77570507 8.50528533,4.85209395 8.50528533,4.93642729 C8.50528533,5.10509395 8.63919837,5.24167729 8.80419837,5.24167729 C8.88669837,5.24167729 8.96142663,5.20776062 9.01552989,5.15245507 L9.70362772,4.44906618 L9.70362772,6.76976062 C9.70362772,6.93842729 9.8360462,7.07501062 9.99955163,7.07501062 C10.163356,7.07501062 10.2960734,6.93842729 10.2960734,6.76976062 L10.2960734,4.44906618 L10.9841712,5.15245507 C11.0382745,5.20776062 11.1130027,5.24167729 11.1955027,5.24167729 C11.3605027,5.24167729 11.4944158,5.10509395 11.4944158,4.93642729 C11.4944158,4.85209395 11.4609375,4.77570507 11.4068342,4.72009395" id="Fill-3" fill="#FFFFFF"></path>
            </g>
        </g>
    </g>
</svg>