<svg xmlns="http://www.w3.org/2000/svg" viewBox="-5568 -424 32.424 32.386"><defs><style>.a{fill:#fff;}.b{fill:#263238;}</style></defs><g transform="translate(-5567.991 -424.018)"><path class="a" d="M32.157,17.736a1.81,1.81,0,0,1,.2.71.209.209,0,0,1-.024.318A1.545,1.545,0,0,1,31.3,19.792a.717.717,0,0,1-.539.1H10.372c-.441-.024-.857.024-1.3-.024a5.534,5.534,0,0,0-1.273,0,6.238,6.238,0,0,0-.955-.049c-.122,0-.22.073-.343.024a4.154,4.154,0,0,0-.955-.024c-.122,0-.22.073-.343.024a4.154,4.154,0,0,0-.955-.024c-.122,0-.22.073-.343.024a4.155,4.155,0,0,0-.955-.024c-.122,0-.22.073-.343.024-.416-.024-.734.024-1.053,0-.122,0-.245.073-.343-.024A2.19,2.19,0,0,1,.58,19.6a.345.345,0,0,1-.269-.245,1.389,1.389,0,0,1,1.1-2.276.492.492,0,0,1,.318-.1h.612c.245.024.343-.1.367-.318.024-.245.073-.49.122-.734.049-.147.024-.294.147-.392.1-.392.22-.759.318-1.15a1.155,1.155,0,0,1,.245-.734c.269-.563.514-1.126.783-1.664A2.24,2.24,0,0,1,4.913,11,14.576,14.576,0,0,1,8.071,7.675c.22-.171.441-.318.636-.49a5.109,5.109,0,0,1,.955-.661c.563-.269,1.1-.563,1.689-.783.171-.049.343-.147.514-.2a3.261,3.261,0,0,0,.465-.122c.392-.122.392-.122.245-.514a2.039,2.039,0,0,1-.1-.367,1.907,1.907,0,0,1-.1-.514,1.961,1.961,0,0,1,.073-.661,4.675,4.675,0,0,1,.294-1.15c0-.367.294-.587.514-.832.2-.2.392-.392.587-.563.073-.1.171-.147.245-.245a1.094,1.094,0,0,1,.661-.294,4.392,4.392,0,0,1,2.252-.2c.1.073.269-.049.343.1.22.1.441.171.636.269.1.049.22.024.245.147.147.122.318.245.465.367a.485.485,0,0,1,.269.269c.122.147.22.294.343.441a.373.373,0,0,1,.171.294c.1.22.171.416.269.636a.235.235,0,0,1,.073.245l.073.587c0,.22.147.441,0,.636a12.688,12.688,0,0,1-.343,1.3.576.576,0,0,1,.392.122c.22.073.441.122.636.2.147-.049.22.073.318.122.171.073.343.122.514.2.1.073.269-.024.318.147a2.755,2.755,0,0,0,.661.318.183.183,0,0,1,.2.122c.22.122.416.245.636.367.1,0,.171.024.2.122.2.122.392.269.587.392.122,0,.147.1.2.147.147.122.294.22.441.343.1.073.245.049.245.2.171.147.343.318.514.465a.116.116,0,0,1,.122.122c.171.171.343.367.514.539.073.024.1.1.147.171.122.147.269.294.392.465.073.049.171.073.171.2.147.2.269.392.416.563.122.024.122.171.171.269.122.171.22.343.343.514.122.049.122.171.171.294a3.136,3.136,0,0,0,.269.49c.147.1.122.269.2.392.073.171.171.343.245.539.147.073.073.22.147.343a5.127,5.127,0,0,1,.2.563c.122.1.1.22.122.343a3.158,3.158,0,0,0,.2.685.261.261,0,0,1,.073.269c.049.245.1.465.147.71.171.2.024.441.122.661,0,.22-.024.465.343.367a.229.229,0,0,1,.318,0H31.1c.1.049.245-.073.343.073.171.1.343.22.514.318C32.083,17.515,32.132,17.613,32.157,17.736Z" transform="translate(0 0)"/><path class="a" d="M30.556,94.148h-.979c-.1.049-.22.1-.318,0h-.979c-.1.049-.22.1-.318,0h-.979c-.1.049-.22.1-.318,0h-.979c-.1.049-.22.1-.318,0h-.979c-.1.049-.22.1-.318,0H23.09c-.1.049-.22.1-.318,0h-.979c-.1.049-.22.1-.318,0H20.5c-.1.049-.22.1-.318,0H19.2c-.1.049-.22.1-.318,0a.34.34,0,0,0-.269.049c-.587.343-1.2.71-1.787,1.053a2.086,2.086,0,0,1-.906.514l-1.469.808a1.247,1.247,0,0,1-.416.171.183.183,0,0,1-.269-.073c-.2-.122-.245-.367-.367-.539-.171-.049-.073-.22-.147-.318a2.1,2.1,0,0,0-.269-.587c-.1-.073-.1-.171-.122-.269-.073-.22-.171-.416-.269-.636-.122-.049-.073-.171-.122-.269-.1-.22-.2-.416-.269-.636a.18.18,0,0,1-.1-.2,4.967,4.967,0,0,0-.269-.636.232.232,0,0,1-.122-.269,2.924,2.924,0,0,0-.269-.636c-.147-.073-.147-.22-.171-.343a2.309,2.309,0,0,0-.245-.563c-.2-.171-.1-.367-.1-.563.1-.245.343-.343.539-.465.245-.171.563-.245.759-.49a4.131,4.131,0,0,1,.759-.514,20.624,20.624,0,0,0,2.252-1.3c.318-.147.563-.367.881-.539a11.359,11.359,0,0,1,1.762-.783c.171-.049.367-.1.539-.147.367-.073.71-.147,1.077-.2a3,3,0,0,0,.465-.049c.318-.024.636-.049.93-.1h1.64c.269.024.539-.024.832.024a2.112,2.112,0,0,0,.685.049,6.88,6.88,0,0,1,.71.024c.049,0,.073.024.122.024a1.337,1.337,0,0,0,.441.024h4.406a1.078,1.078,0,0,1,.392.049,2.817,2.817,0,0,1,.612.294l.294.294a1.621,1.621,0,0,1,.367.539,1.7,1.7,0,0,1,.122.318,4.187,4.187,0,0,1,0,.783,2.924,2.924,0,0,1-.269.636,1.552,1.552,0,0,1-.563.563,2.077,2.077,0,0,1-.636.269.678.678,0,0,1-.22.024c-1.567,0-3.109-.024-4.675.024-.245.049-.416.171-.392.465.024.22.22.318.636.318h2.472a1.6,1.6,0,0,0,.343,0h.93a1.6,1.6,0,0,0,.343,0h.881a.59.59,0,0,0,.587-.22c.49-.563.979-1.126,1.469-1.713.71-.808,1.42-1.616,2.105-2.448a1.962,1.962,0,0,1,1-.661,2.354,2.354,0,0,1,.832-.049,2.291,2.291,0,0,1,.392.1.766.766,0,0,1,.245.122,2.13,2.13,0,0,1,.514.416.759.759,0,0,1,.147.318c.073.2.147.416.22.612.122.2,0,.392,0,.587a2.812,2.812,0,0,1-.808,1.346l-.294.367a4.679,4.679,0,0,1-.808,1.028c-.539.636-1.077,1.248-1.664,1.836-.367.416-.759.832-1.126,1.273a2.739,2.739,0,0,1-.857.734.425.425,0,0,1-.441.122c-.318,0-.636,0-.979.024C30.776,94.2,30.654,94.246,30.556,94.148Z" transform="translate(-8.239 -64.369)"/><path class="b" d="M19.4,38.958c0-5.605,5.067-10.158,11.309-10.158s11.309,4.553,11.309,10.158" transform="translate(-14.658 -21.737)"/></g></svg>