<?xml version="1.0" encoding="UTF-8"?>
<svg width="38px" height="43px" viewBox="0 0 38 43" version="1.1" xmlns="http://www.w3.org/2000/svg" xmlns:xlink="http://www.w3.org/1999/xlink">
    <!-- Generator: Sketch 39.1 (31720) - http://www.bohemiancoding.com/sketch -->
    <title>Page 1</title>
    <desc>Created with Sketch.</desc>
    <defs>
        <polygon id="path-1" points="0 43 38 43 38 0 0 0"></polygon>
    </defs>
    <g id="Ventas-in-situ" stroke="none" stroke-width="1" fill="none" fill-rule="evenodd">
        <g id="Artboard" transform="translate(-2300.000000, -349.000000)">
            <g id="Page-1" transform="translate(2300.000000, 349.000000)">
                <path d="M2.71428571,10.75 L2.71428571,40.3125 C2.71428571,41.7973438 3.92892857,43 5.42857143,43 L32.5714286,43 C34.0697143,43 35.2857143,41.7973438 35.2857143,40.3125 L35.2857143,10.75 L2.71428571,10.75 L2.71428571,10.75 Z" id="Fill-1" fill="#CCCCCC"></path>
                <path d="M27.1428571,16.125 C26.3923571,16.125 25.7857143,16.7256563 25.7857143,17.46875 L25.7857143,36.28125 C25.7857143,37.023 26.3923571,37.625 27.1428571,37.625 C27.892,37.625 28.5,37.023 28.5,36.28125 L28.5,17.46875 C28.5,16.7256563 27.892,16.125 27.1428571,16.125 M19,16.125 C18.2495,16.125 17.6428571,16.7256563 17.6428571,17.46875 L17.6428571,36.28125 C17.6428571,37.023 18.2495,37.625 19,37.625 C19.7491429,37.625 20.3571429,37.023 20.3571429,36.28125 L20.3571429,17.46875 C20.3571429,16.7256563 19.7491429,16.125 19,16.125 M10.8571429,16.125 C10.1066429,16.125 9.5,16.7256563 9.5,17.46875 L9.5,36.28125 C9.5,37.023 10.1066429,37.625 10.8571429,37.625 C11.6062857,37.625 12.2142857,37.023 12.2142857,36.28125 L12.2142857,17.46875 C12.2142857,16.7256563 11.6062857,16.125 10.8571429,16.125" id="Fill-3" fill="#999999"></path>
                <mask id="mask-2" fill="white">
                    <use xlink:href="#path-1"></use>
                </mask>
                <g id="Clip-6"></g>
                <polygon id="Fill-5" fill="#999999" mask="url(#mask-2)" points="2.71428571 14.78125 35.2857143 14.78125 35.2857143 12.09375 2.71428571 12.09375"></polygon>
                <path d="M35.2857143,5.375 L2.71428571,5.375 C1.21464286,5.375 0,6.579 0,8.0625 L0,12.09375 L38,12.09375 L38,8.0625 C38,6.579 36.784,5.375 35.2857143,5.375" id="Fill-7" fill="#CCCCCC" mask="url(#mask-2)"></path>
                <path d="M24.4285714,0 L13.5714286,0 C12.0717857,0 10.8571429,1.204 10.8571429,2.6875 L10.8571429,5.375 L13.5714286,5.375 L13.5714286,4.03125 C13.5714286,3.2895 14.1780714,2.6875 14.9285714,2.6875 L23.0714286,2.6875 C23.8205714,2.6875 24.4285714,3.2895 24.4285714,4.03125 L24.4285714,5.375 L27.1428571,5.375 L27.1428571,2.6875 C27.1428571,1.204 25.9268571,0 24.4285714,0" id="Fill-8" fill="#CCCCCC" mask="url(#mask-2)"></path>
            </g>
        </g>
    </g>
</svg>