<?xml version="1.0" encoding="UTF-8"?>
<svg width="32px" height="32px" viewBox="0 0 32 32" version="1.1" xmlns="http://www.w3.org/2000/svg" xmlns:xlink="http://www.w3.org/1999/xlink">
    <!-- Generator: Sketch 39.1 (31720) - http://www.bohemiancoding.com/sketch -->
    <title>Page 1</title>
    <desc>Created with Sketch.</desc>
    <defs></defs>
    <g id="Ventas-in-situ" stroke="none" stroke-width="1" fill="none" fill-rule="evenodd">
        <g id="Artboard" transform="translate(-515.000000, -219.000000)">
            <g id="Page-1" transform="translate(516.000000, 220.000000)">
                <path d="M15.375876,0.309938 C23.696896,0.309938 30.441876,7.054918 30.441876,15.375938 C30.441876,23.696338 23.696896,30.441938 15.375876,30.441938 C7.055476,30.441938 0.309876,23.696338 0.309876,15.375938 C0.309876,7.054918 7.055476,0.309938 15.375876,0.309938" id="Fill-1" fill="#FFFFFF"></path>
                <path d="M15.375876,0.309938 C23.696896,0.309938 30.441876,7.054918 30.441876,15.375938 C30.441876,23.696338 23.696896,30.441938 15.375876,30.441938 C7.055476,30.441938 0.309876,23.696338 0.309876,15.375938 C0.309876,7.054918 7.055476,0.309938 15.375876,0.309938 L15.375876,0.309938 Z" id="Stroke-3" stroke="#949F13"></path>
                <path d="M12.641862,13.2866 C12.641862,12.13774 13.576202,11.2034 14.725062,11.2034 C15.873922,11.2034 16.808262,12.13774 16.808262,13.2866 C16.808262,14.43546 15.873922,15.3698 14.725062,15.3698 C13.576202,15.3698 12.641862,14.43546 12.641862,13.2866 M19.288262,13.2866 C19.288262,10.77064 17.241022,8.7234 14.725062,8.7234 C12.209102,8.7234 10.161862,10.77064 10.161862,13.2866 C10.161862,15.80318 12.209102,17.8498 14.725062,17.8498 C14.844102,17.8498 14.960662,17.84112 15.077222,17.83182 L16.882662,22.79988 L19.213862,21.95234 L17.403462,16.97312 C18.543022,16.14232 19.288262,14.80126 19.288262,13.2866" id="Fill-5" fill="#909B13"></path>
            </g>
        </g>
    </g>
</svg>