<?xml version="1.0" encoding="utf-8"?>
<!-- Generator: Adobe Illustrator 21.1.0, SVG Export Plug-In . SVG Version: 6.00 Build 0)  -->
<svg version="1.1" id="Capa_1" xmlns="http://www.w3.org/2000/svg" xmlns:xlink="http://www.w3.org/1999/xlink" x="0px" y="0px"
	 viewBox="0 0 25 25" style="enable-background:new 0 0 25 25;" xml:space="preserve">
<style type="text/css">
	.st0{filter:url(#Adobe_OpacityMaskFilter);}
	.st1{fill:#FFFFFF;}
	.st2{mask:url(#mask-2);fill:#FFFFFF;}
</style>
<title>Page 1</title>
<desc>Created with Sketch.</desc>
<g id="Ventas-in-situ">
	<g id="Artboard" transform="translate(-2476.000000, -174.000000)">
		<g id="Group-Copy-8" transform="translate(2476.000000, 174.000000)">
			<g id="Page-1">
				<g id="Clip-2">
				</g>
				<defs>
					<filter id="Adobe_OpacityMaskFilter" filterUnits="userSpaceOnUse" x="0" y="0" width="24.9" height="25">
						<feColorMatrix  type="matrix" values="1 0 0 0 0  0 1 0 0 0  0 0 1 0 0  0 0 0 1 0"/>
					</filter>
				</defs>
				<mask maskUnits="userSpaceOnUse" x="0" y="0" width="24.9" height="25" id="mask-2">
					<g class="st0">
						<polygon id="path-1" class="st1" points="24.9,25 24.9,0 0,0 0,25 						"/>
					</g>
				</mask>
				<path id="Fill-1" class="st2" d="M13,17.2c-0.7-0.2-1.4-0.4-2.1-0.6c-0.4-0.1-1-0.4-1.1-0.3c-0.3,0.3-0.5,0.9-0.5,1.3
					c0,0.5,0.2,1,0.4,1.4c0.9-0.3,1.6-0.6,2.3-0.6C13,18.3,13.2,18,13,17.2c0.2,1.1,0.9,1.7,2.1,1.9c0.6-1.1,0.8-2.1-0.2-3.2
					C14.2,16.4,13.6,16.8,13,17.2 M2.4,24.9c-0.5-0.1-1.1-0.3-1.4-0.7c-1.8-1.8-0.9-5.9,1.4-6.8c2.2-0.8,4.6-1.4,7.2-2.2
					c-0.3-0.7-0.7-1.5-1-2.3c-0.2-0.4-0.4-0.8-0.5-1.2c-0.2-0.6-0.5-1.1-0.8-1.6C6.7,9.4,6.5,8,6.9,7.1c0.3-0.7,0.5-1.2,0.4-1.9
					C6.9,2.2,8,0.6,11,0.1c1.2-0.2,2.5-0.1,3.7,0.2c2.4,0.6,3.3,2.3,3,4.6c-0.1,0.8-0.4,1.6,0.5,2.2c0.5,0.3-0.3,2.9-0.8,3.3
					c-0.1,0-0.2,0.1-0.2,0.1c-0.6,1.6-1.2,3.2-1.8,5c1,0.2,1.8,0.3,2.6,0.5c1.1,0.3,2.1,0.5,3.2,0.8c3.8,1.3,4.4,2.4,3.5,6.2
					c-0.2,1-0.9,1.7-2,1.8"/>
			</g>
		</g>
	</g>
</g>
</svg>
