<?xml version="1.0" encoding="UTF-8"?>
<svg width="33px" height="33px" viewBox="0 0 33 33" version="1.1" xmlns="http://www.w3.org/2000/svg" xmlns:xlink="http://www.w3.org/1999/xlink">
    <!-- Generator: Sketch 39.1 (31720) - http://www.bohemiancoding.com/sketch -->
    <title>Page 1</title>
    <desc>Created with Sketch.</desc>
    <defs>
        <filter x="-50%" y="-50%" width="200%" height="200%" filterUnits="objectBoundingBox" id="filter-1">
            <feOffset dx="0" dy="2" in="SourceAlpha" result="shadowOffsetOuter1"></feOffset>
            <feGaussianBlur stdDeviation="2" in="shadowOffsetOuter1" result="shadowBlurOuter1"></feGaussianBlur>
            <feColorMatrix values="0 0 0 0 0   0 0 0 0 0   0 0 0 0 0  0 0 0 0.5 0" type="matrix" in="shadowBlurOuter1" result="shadowMatrixOuter1"></feColorMatrix>
            <feMerge>
                <feMergeNode in="shadowMatrixOuter1"></feMergeNode>
                <feMergeNode in="SourceGraphic"></feMergeNode>
            </feMerge>
        </filter>
        <polygon id="path-2" points="24.9411616 24.9618 24.9411616 3.85407352e-05 -1.82929757e-05 3.85407352e-05 -1.82929757e-05 24.9618 24.9411616 24.9618"></polygon>
    </defs>
    <g id="Ventas-in-situ" stroke="none" stroke-width="1" fill="none" fill-rule="evenodd">
        <g id="Artboard" transform="translate(-501.000000, -172.000000)">
            <g id="Page-1" filter="url(#filter-1)" transform="translate(505.000000, 174.000000)">
                <mask id="mask-3" fill="white">
                    <use xlink:href="#path-2"></use>
                </mask>
                <g id="Clip-2"></g>
                <path d="M13.0094697,17.16405 C12.3152778,16.96655 11.6198232,16.7743 10.927904,16.5698 C10.5443182,16.4563 9.93042929,16.12105 9.83118687,16.2353 C9.53573232,16.57555 9.31755051,17.08605 9.30669192,17.53505 C9.29532828,18.0188 9.55290404,18.50855 9.67992424,18.9498 C10.5766414,18.6883 11.2933081,18.31555 12.0127525,18.31005 C12.972096,18.3028 13.2296717,17.9843 13.0018939,17.1398 C13.2195707,18.28655 13.9473485,18.8723 15.1536616,19.07855 C15.7243687,17.9813 15.9218434,16.9848 14.9112374,15.91505 C14.2465909,16.35155 13.627904,16.7578 13.0094697,17.16405 M2.37790404,24.9498 C1.87184343,24.87305 1.29684343,24.61755 0.946843434,24.2603 C-0.819318182,22.45605 0.0157828283,18.31455 2.37184343,17.4743 C4.60820707,16.67705 6.92487374,16.10005 9.55189394,15.3243 C9.23623737,14.6133 8.8864899,13.83805 8.54810606,13.0583 C8.37032828,12.64905 8.18472222,12.24055 8.05214646,11.8163 C7.86906566,11.23055 7.59229798,10.7398 7.25189394,10.2163 C6.71704545,9.39455 6.51906566,7.9783 6.87765152,7.09055 C7.14659091,6.4248 7.33926768,5.8553 7.25896465,5.19555 C6.89103535,2.1688 7.96628788,0.5773 11.0082071,0.1043 C12.2097222,-0.0827 13.5347222,-0.01545 14.7127525,0.2843 C17.0766414,0.88655 18.0339646,2.53605 17.7142677,4.8983 C17.6089646,5.67605 17.2776515,6.45855 18.172601,7.1353 C18.6311869,7.4818 17.9061869,10.03205 17.3650253,10.4423 C17.3021465,10.4903 17.1814394,10.5043 17.1609848,10.5603 C16.5804293,12.14955 16.0089646,13.74205 15.3665404,15.5283 C16.4008838,15.74105 17.1771465,15.87705 17.9410354,16.06305 C18.9983586,16.3208 20.0645202,16.5623 21.0948232,16.9053 C24.877399,18.1653 25.4796717,19.2748 24.5640152,23.1308 C24.3152778,24.17955 23.6609848,24.8043 22.5880051,24.9618" id="Fill-1" fill="#1D1D1B" mask="url(#mask-3)"></path>
            </g>
        </g>
    </g>
</svg>