<?xml version="1.0" encoding="UTF-8"?>
<svg width="56px" height="56px" viewBox="0 0 56 56" version="1.1" xmlns="http://www.w3.org/2000/svg" xmlns:xlink="http://www.w3.org/1999/xlink">
    <!-- Generator: Sketch 39.1 (31720) - http://www.bohemiancoding.com/sketch -->
    <title>Page 1</title>
    <desc>Created with Sketch.</desc>
    <defs>
        <filter x="-50%" y="-50%" width="200%" height="200%" filterUnits="objectBoundingBox" id="filter-1">
            <feOffset dx="0" dy="2" in="SourceAlpha" result="shadowOffsetOuter1"></feOffset>
            <feGaussianBlur stdDeviation="2" in="shadowOffsetOuter1" result="shadowBlurOuter1"></feGaussianBlur>
            <feColorMatrix values="0 0 0 0 0   0 0 0 0 0   0 0 0 0 0  0 0 0 0.5 0" type="matrix" in="shadowBlurOuter1" result="shadowMatrixOuter1"></feColorMatrix>
            <feMerge>
                <feMergeNode in="shadowMatrixOuter1"></feMergeNode>
                <feMergeNode in="SourceGraphic"></feMergeNode>
            </feMerge>
        </filter>
        <polygon id="path-2" points="47.8870303 47.926656 47.8870303 7.3998212e-05 -3.51225131e-05 7.3998212e-05 -3.51225131e-05 47.926656 47.8870303 47.926656"></polygon>
    </defs>
    <g id="Ventas-in-situ" stroke="none" stroke-width="1" fill="none" fill-rule="evenodd">
        <g id="Artboard" transform="translate(-2887.000000, -722.000000)">
            <g id="Page-1" filter="url(#filter-1)" transform="translate(2891.000000, 724.000000)">
                <mask id="mask-3" fill="white">
                    <use xlink:href="#path-2"></use>
                </mask>
                <g id="Clip-2"></g>
                <path d="M24.9781818,32.954976 C23.6453333,32.575776 22.3100606,32.206656 20.9815758,31.814016 C20.2450909,31.596096 19.0664242,30.952416 18.8758788,31.171776 C18.3086061,31.825056 17.889697,32.805216 17.8688485,33.667296 C17.8470303,34.596096 18.3415758,35.536416 18.5854545,36.383616 C20.3071515,35.881536 21.6831515,35.165856 23.0644848,35.155296 C24.9064242,35.141376 25.4009697,34.529856 24.9636364,32.908416 C25.3815758,35.110176 26.7789091,36.234816 29.0950303,36.630816 C30.1907879,34.524096 30.5699394,32.610816 28.6295758,30.556896 C27.3534545,31.394976 26.1655758,32.174976 24.9781818,32.954976 M4.56557576,47.903616 C3.59393939,47.756256 2.48993939,47.265696 1.81793939,46.579776 C-1.57309091,43.115616 0.0303030303,35.163936 4.55393939,33.550656 C8.84775758,32.019936 13.2957576,30.912096 18.3396364,29.422656 C17.7335758,28.057536 17.0620606,26.569056 16.4123636,25.071936 C16.0710303,24.286176 15.7146667,23.501856 15.4601212,22.687296 C15.1086061,21.562656 14.5772121,20.620416 13.9236364,19.615296 C12.8967273,18.037536 12.5166061,15.318336 13.2050909,13.613856 C13.7214545,12.335616 14.0913939,11.242176 13.9372121,9.975456 C13.2307879,4.164096 15.2952727,1.108416 21.1357576,0.200256 C23.4426667,-0.158784 25.9866667,-0.029664 28.2484848,0.545856 C32.7871515,1.702176 34.6252121,4.869216 34.0113939,9.404736 C33.8092121,10.898016 33.1730909,12.400416 34.8913939,13.699776 C35.7718788,14.365056 34.3798788,19.261536 33.3408485,20.049216 C33.2201212,20.141376 32.9883636,20.168256 32.9490909,20.275776 C31.8344242,23.327136 30.7372121,26.384736 29.5037576,29.814336 C31.489697,30.222816 32.9801212,30.483936 34.4467879,30.841056 C36.4768485,31.335936 38.5238788,31.799616 40.5020606,32.458176 C47.7646061,34.877376 48.9209697,37.007616 47.1629091,44.411136 C46.6853333,46.424736 45.4290909,47.624256 43.3689697,47.926656" id="Fill-1" fill="#1D1D1B" mask="url(#mask-3)"></path>
            </g>
        </g>
    </g>
</svg>