<?xml version="1.0" encoding="utf-8"?>
<!-- Generator: Adobe Illustrator 21.1.0, SVG Export Plug-In . SVG Version: 6.00 Build 0)  -->
<svg version="1.1" id="Capa_1" xmlns="http://www.w3.org/2000/svg" xmlns:xlink="http://www.w3.org/1999/xlink" x="0px" y="0px"
	 viewBox="0 0 23 24" style="enable-background:new 0 0 23 24;" xml:space="preserve">
<style type="text/css">
	.st0{fill:#FFFFFF;}
</style>
<title>Page 1 Copy 7</title>
<desc>Created with Sketch.</desc>
<g id="Ventas-in-situ">
	<g id="Artboard" transform="translate(-162.000000, -177.000000)">
		<g id="Page-1-Copy-7" transform="translate(162.000000, 177.000000)">
			<path id="Fill-1" class="st0" d="M17.7,17v-0.7c0-0.4-0.3-0.7-0.7-0.7s-0.7,0.3-0.7,0.7V17h-0.7c-0.4,0-0.7,0.3-0.7,0.7
				c0,0.4,0.3,0.7,0.7,0.7h0.7v0.7c0,0.4,0.3,0.7,0.7,0.7s0.7-0.3,0.7-0.7v-0.7h0.7c0.4,0,0.7-0.3,0.7-0.7c0-0.4-0.3-0.7-0.7-0.7
				H17.7z"/>
			<path id="Fill-3" class="st0" d="M17,21.4c-2,0-3.7-1.7-3.7-3.7S14.9,14,17,14s3.7,1.7,3.7,3.7S19,21.4,17,21.4 M17,11.8
				c-1.8,0-3.4,0.8-4.5,2.1L12,13.7c-0.5-0.2-0.9-0.7-0.9-1.3v-0.7c0.9-0.7,1.6-1.7,2.1-2.9c0.5,0,1-0.4,1.1-0.9l0.3-1.2
				c0.1-0.2,0-0.4-0.1-0.6C14.3,6,14,5.9,13.8,5.9c0-0.3,0-0.6,0-0.9c0-3.2-1.8-5-5-5s-5,1.8-5,5c0,0.3,0,0.6,0,0.9
				C3.7,5.9,3.4,6,3.3,6.2C3.2,6.4,3.1,6.6,3.2,6.8L3.5,8c0.1,0.5,0.6,0.9,1.1,0.9c0.5,1.2,1.2,2.2,2.1,2.9v0.7
				c0,0.6-0.4,1.1-0.9,1.3L2.3,15C0.9,15.6,0,16.9,0,18.4v2.3c0,0.8,0.7,1.5,1.5,1.5h11.6c1,0.9,2.4,1.5,3.9,1.5
				c3.3,0,5.9-2.6,5.9-5.9S20.2,11.8,17,11.8"/>
		</g>
	</g>
</g>
</svg>
