<?xml version="1.0" encoding="UTF-8"?>
<svg width="23px" height="24px" viewBox="0 0 23 24" version="1.1" xmlns="http://www.w3.org/2000/svg" xmlns:xlink="http://www.w3.org/1999/xlink">
    <!-- Generator: Sketch 39.1 (31720) - http://www.bohemiancoding.com/sketch -->
    <title>Page 1</title>
    <desc>Created with Sketch.</desc>
    <defs></defs>
    <g id="Ventas-in-situ" stroke="none" stroke-width="1" fill="none" fill-rule="evenodd">
        <g id="Artboard" transform="translate(-190.000000, -177.000000)" fill="#D0011B">
            <g id="Page-1" transform="translate(190.000000, 177.000000)">
                <path d="M17.5891387,16.409175 L17.0645903,16.939425 L16.5400419,16.409175 C16.2499452,16.115925 15.7803,16.115925 15.4909452,16.409175 C15.2008484,16.702425 15.2008484,17.176425 15.4909452,17.469675 L16.0154935,17.999925 L15.4909452,18.530175 C15.2008484,18.823425 15.2008484,19.298175 15.4909452,19.590675 C15.7803,19.883925 16.2499452,19.883925 16.5400419,19.590675 L17.0645903,19.060425 L17.5891387,19.590675 C17.8792355,19.883925 18.3481387,19.883925 18.6382355,19.590675 C18.9283323,19.298175 18.9283323,18.823425 18.6382355,18.530175 L18.1136871,17.999925 L18.6382355,17.469675 C18.9283323,17.176425 18.9283323,16.702425 18.6382355,16.409175 C18.3481387,16.115925 17.8792355,16.115925 17.5891387,16.409175 Z" id="Fill-1"></path>
                <path d="M17.0645161,21.75 C15.019,21.75 13.3548387,20.06775 13.3548387,18 C13.3548387,15.93225 15.019,14.25 17.0645161,14.25 C19.1100323,14.25 20.7741935,15.93225 20.7741935,18 C20.7741935,20.06775 19.1100323,21.75 17.0645161,21.75 M17.0645161,12 C15.2438065,12 13.6174839,12.83025 12.5283226,14.1345 L12.0327097,13.9455 C11.488871,13.73775 11.1290323,13.21125 11.1290323,12.624 L11.1290323,11.961 C12.0245484,11.274 12.7197419,10.203 13.1938387,9 C13.7243226,9 14.1872903,8.6355 14.3156452,8.11425 L14.6109355,6.9195 C14.6665806,6.69825 14.616871,6.46425 14.478129,6.285 C14.3393871,6.105 14.1264516,6 13.9009032,6 C13.9283548,5.69475 13.9483871,5.39175 13.9483871,5.1 C13.9483871,1.8135 12.1543871,0 8.90322581,0 C5.65206452,0 3.85806452,1.8135 3.85806452,5.1 C3.85806452,5.39175 3.87809677,5.69475 3.90554839,6 C3.68,6 3.46706452,6.105 3.32832258,6.285 C3.18958065,6.46425 3.13987097,6.69825 3.19551613,6.9195 L3.49080645,8.11425 C3.61916129,8.6355 4.08212903,9 4.6126129,9 C5.08670968,10.203 5.78190323,11.274 6.67741935,11.961 L6.67741935,12.624 C6.67741935,13.21125 6.31758065,13.73775 5.77374194,13.9455 L2.30074194,15.2715 C0.915548387,15.7995 0,17.1405 0,18.636 L0,21 C0,21.828 0.664774194,22.5 1.48387097,22.5 L13.1470968,22.5 C14.1932258,23.43075 15.5613548,24 17.0645161,24 C20.343129,24 23,21.31425 23,18 C23,14.68575 20.343129,12 17.0645161,12" id="Fill-3"></path>
            </g>
        </g>
    </g>
</svg>