<?xml version="1.0" encoding="utf-8"?>
<!-- Generator: Adobe Illustrator 21.1.0, SVG Export Plug-In . SVG Version: 6.00 Build 0)  -->
<svg version="1.1" id="Capa_1" xmlns="http://www.w3.org/2000/svg" xmlns:xlink="http://www.w3.org/1999/xlink" x="0px" y="0px"
	 viewBox="0 0 29 32" style="enable-background:new 0 0 29 32;" xml:space="preserve">
<style type="text/css">
	.st0{fill:none;}
	.st1{fill:#FFFFFF;}
</style>
<title>Page 1</title>
<desc>Created with Sketch.</desc>
<g id="Caja---Pantalla-Principal">
	<g id="Desktop-Landscape5" transform="translate(-701.000000, -393.000000)">
		<g id="Page-1" transform="translate(701.000000, 393.000000)">
			<path id="Fill-1" class="st0" d="M1.6,6.4h3.2c0.9,0,1.6-0.7,1.6-1.6S5.7,3.2,4.8,3.2H1.6C0.7,3.2,0,3.9,0,4.8S0.7,6.4,1.6,6.4"
				/>
			<path id="Fill-3" class="st0" d="M1.6,13.9h3.2c0.9,0,1.6-0.7,1.6-1.6c0-0.9-0.7-1.6-1.6-1.6H1.6c-0.9,0-1.6,0.7-1.6,1.6
				C0,13.1,0.7,13.9,1.6,13.9"/>
			<path id="Fill-5" class="st0" d="M1.6,21.3h3.2c0.9,0,1.6-0.7,1.6-1.6s-0.7-1.6-1.6-1.6H1.6c-0.9,0-1.6,0.7-1.6,1.6
				S0.7,21.3,1.6,21.3"/>
			<path id="Fill-7" class="st0" d="M6.4,27.2c0-0.9-0.7-1.6-1.6-1.6H1.6c-0.9,0-1.6,0.7-1.6,1.6c0,0.9,0.7,1.6,1.6,1.6h3.2
				C5.7,28.8,6.4,28.1,6.4,27.2"/>
			<path id="Fill-9" class="st1" d="M23.6,27.2c0,0.3-0.2,0.5-0.5,0.5H22c-0.3,0-0.5-0.2-0.5-0.5v-4.9c0-1.1,0.4-1.4,0.6-2.1
				c0.1-0.4,0.1-0.9,0.1-0.9c0.1-1.6-1.1-2.2-1.1-2.2c-0.7-0.4-1.3-0.8-1.1-2l1-6.6c0.6-3.7,1.5-4.9,2.2-5.3c0.1-0.1,0.2-0.1,0.3,0
				c0.1,0.1,0.1,0.2,0.1,0.3V27.2z M15.7,14c-0.2,0.2-0.2,0.5-0.2,0.6L16,26.9c0,0.5-0.4,0.8-0.9,0.8h-1c-0.5,0-0.9-0.3-0.9-0.8
				l0.4-12.2c0-0.2,0-0.5-0.2-0.7c-1.6-1.1-1.7-2.5-1.6-3.1l0.6-7.3c0-0.2,0.2-0.4,0.4-0.4c0.1,0,0.2,0,0.3,0.1
				c0.1,0.1,0.1,0.2,0.1,0.3l-0.2,6c0,0.1,0,0.2,0.1,0.2c0.1,0.1,0.1,0.1,0.2,0.1c0.2,0,0.3-0.1,0.3-0.3l0.3-6
				c0-0.2,0.2-0.4,0.5-0.4h0.1c0.2,0,0.4,0.2,0.5,0.4l0.3,6c0,0.2,0.1,0.3,0.3,0.3c0.1,0,0.2,0,0.2-0.1C15.9,9.8,16,9.7,16,9.7
				l-0.2-6c0-0.1,0-0.2,0.1-0.3c0.1-0.1,0.2-0.1,0.3-0.1c0.2,0,0.4,0.2,0.4,0.4l0.6,7.3C17.4,11.5,17.3,12.9,15.7,14L15.7,14z
				 M5.4,0C4.2,0,3.2,1,3.2,2.1h1.6c1.5,0,2.7,1.2,2.7,2.7S6.3,7.5,4.8,7.5H3.2v2.1h1.6c1.5,0,2.7,1.2,2.7,2.7s-1.2,2.7-2.7,2.7H3.2
				v2.1h1.6c1.5,0,2.7,1.2,2.7,2.7s-1.2,2.7-2.7,2.7H3.2v2.1h1.6c1.5,0,2.7,1.2,2.7,2.7c0,1.5-1.2,2.7-2.7,2.7H3.2
				c0,1.2,1,2.1,2.1,2.1H29V0H5.4z"/>
		</g>
	</g>
</g>
</svg>
